G04 #@! TF.GenerationSoftware,KiCad,Pcbnew,5.0.1-33cea8e~67~ubuntu16.04.1*
G04 #@! TF.CreationDate,2018-10-18T10:52:16-04:00*
G04 #@! TF.ProjectId,IMU Breakout,494D5520427265616B6F75742E6B6963,rev?*
G04 #@! TF.SameCoordinates,Original*
G04 #@! TF.FileFunction,Legend,Bot*
G04 #@! TF.FilePolarity,Positive*
%FSLAX46Y46*%
G04 Gerber Fmt 4.6, Leading zero omitted, Abs format (unit mm)*
G04 Created by KiCad (PCBNEW 5.0.1-33cea8e~67~ubuntu16.04.1) date Thu 18 Oct 2018 10:52:16 AM EDT*
%MOMM*%
%LPD*%
G01*
G04 APERTURE LIST*
%ADD10C,0.125000*%
%ADD11C,0.200000*%
%ADD12C,0.120000*%
%ADD13C,0.025000*%
G04 APERTURE END LIST*
D10*
X18491327Y-14942304D02*
X18415697Y-14448057D01*
X18208900Y-14985521D02*
X18377503Y-14670682D01*
X18133270Y-14491275D02*
X18458914Y-14730484D01*
X17805194Y-15023211D02*
X17855867Y-15039543D01*
X17950009Y-15025137D01*
X17993479Y-14994399D01*
X18009811Y-14943726D01*
X17981000Y-14755442D01*
X17950261Y-14711972D01*
X17899589Y-14695639D01*
X17805447Y-14710045D01*
X17761977Y-14740784D01*
X17745644Y-14791456D01*
X17752847Y-14838527D01*
X17995406Y-14849584D01*
X17573440Y-15082761D02*
X17523020Y-14753263D01*
X17497810Y-14588514D02*
X17524947Y-14608448D01*
X17505012Y-14635585D01*
X17477875Y-14615651D01*
X17497810Y-14588514D01*
X17505012Y-14635585D01*
X17267478Y-15129579D02*
X17310947Y-15098841D01*
X17330881Y-15071704D01*
X17347214Y-15021031D01*
X17325605Y-14879818D01*
X17294867Y-14836348D01*
X17267730Y-14816414D01*
X17217057Y-14800081D01*
X17146451Y-14810886D01*
X17102981Y-14841624D01*
X17083047Y-14868761D01*
X17066714Y-14919434D01*
X17088323Y-15060647D01*
X17119061Y-15104117D01*
X17146198Y-15124051D01*
X17196871Y-15140384D01*
X17267478Y-15129579D01*
X16840488Y-14857705D02*
X16890909Y-15187203D01*
X16847691Y-14904776D02*
X16820554Y-14884842D01*
X16769882Y-14868509D01*
X16699275Y-14879313D01*
X16655805Y-14910052D01*
X16639472Y-14960724D01*
X16679088Y-15219616D01*
X15862799Y-15079572D02*
X15795793Y-15113912D01*
X15775859Y-15141049D01*
X15759527Y-15191722D01*
X15770331Y-15262328D01*
X15801069Y-15305798D01*
X15828206Y-15325732D01*
X15878879Y-15342065D01*
X16067164Y-15313253D01*
X15991533Y-14819006D01*
X15826784Y-14844216D01*
X15783315Y-14874955D01*
X15763380Y-14902092D01*
X15747048Y-14952764D01*
X15754251Y-14999836D01*
X15784989Y-15043305D01*
X15812126Y-15063239D01*
X15862799Y-15079572D01*
X16027548Y-15054362D01*
X15572917Y-15388884D02*
X15522496Y-15059386D01*
X15497286Y-14894637D02*
X15524423Y-14914571D01*
X15504489Y-14941708D01*
X15477352Y-14921774D01*
X15497286Y-14894637D01*
X15504489Y-14941708D01*
X15357495Y-15397761D02*
X15314025Y-15428500D01*
X15219883Y-15442905D01*
X15169211Y-15426573D01*
X15138472Y-15383103D01*
X15134871Y-15359567D01*
X15151203Y-15308895D01*
X15194673Y-15278156D01*
X15265280Y-15267352D01*
X15308749Y-15236614D01*
X15325082Y-15185941D01*
X15321481Y-15162405D01*
X15290742Y-15118936D01*
X15240070Y-15102603D01*
X15169463Y-15113407D01*
X15125993Y-15144146D01*
X14866850Y-15496927D02*
X14910319Y-15466189D01*
X14926652Y-15415516D01*
X14861826Y-14991876D01*
X14466745Y-15558152D02*
X14427129Y-15299260D01*
X14443462Y-15248588D01*
X14486931Y-15217849D01*
X14581074Y-15203444D01*
X14631746Y-15219776D01*
X14463143Y-15534616D02*
X14513816Y-15550949D01*
X14631494Y-15532942D01*
X14674964Y-15502203D01*
X14691296Y-15451531D01*
X14684093Y-15404459D01*
X14653355Y-15360990D01*
X14602682Y-15344657D01*
X14485004Y-15362664D01*
X14434332Y-15346332D01*
X14180969Y-15264668D02*
X14231389Y-15594166D01*
X14188172Y-15311739D02*
X14161035Y-15291805D01*
X14110362Y-15275473D01*
X14039756Y-15286277D01*
X13996286Y-15317015D01*
X13979953Y-15367688D01*
X14019569Y-15626579D01*
X13572393Y-15695007D02*
X13496763Y-15200760D01*
X13568792Y-15671471D02*
X13619464Y-15687804D01*
X13713607Y-15673398D01*
X13757076Y-15642660D01*
X13777011Y-15615523D01*
X13793343Y-15564850D01*
X13771735Y-15423637D01*
X13740996Y-15380167D01*
X13713859Y-15360233D01*
X13663186Y-15343900D01*
X13569044Y-15358306D01*
X13525574Y-15389044D01*
X18465675Y-15325594D02*
X18211808Y-15870261D01*
X18136177Y-15376014D02*
X18541306Y-15819841D01*
X17811703Y-15931486D02*
X17772087Y-15672595D01*
X17788420Y-15621922D01*
X17831890Y-15591184D01*
X17926032Y-15576778D01*
X17976704Y-15593111D01*
X17808102Y-15907950D02*
X17858774Y-15924283D01*
X17976452Y-15906276D01*
X18019922Y-15875537D01*
X18036254Y-15824865D01*
X18029052Y-15777794D01*
X17998313Y-15734324D01*
X17947640Y-15717991D01*
X17829963Y-15735999D01*
X17779290Y-15719666D01*
X17572998Y-15630800D02*
X17505741Y-15978305D01*
X17337643Y-15666814D01*
X17199778Y-16025124D02*
X17149358Y-15695626D01*
X17124148Y-15530877D02*
X17151285Y-15550811D01*
X17131351Y-15577948D01*
X17104214Y-15558014D01*
X17124148Y-15530877D01*
X17131351Y-15577948D01*
X16772537Y-16066414D02*
X16823209Y-16082747D01*
X16917351Y-16068341D01*
X16960821Y-16037603D01*
X16977154Y-15986930D01*
X16948342Y-15798645D01*
X16917604Y-15755176D01*
X16866931Y-15738843D01*
X16772789Y-15753249D01*
X16729319Y-15783987D01*
X16712987Y-15834660D01*
X16720189Y-15881731D01*
X16962748Y-15892788D01*
X16540782Y-16125964D02*
X16490362Y-15796466D01*
X16504768Y-15890609D02*
X16474029Y-15847139D01*
X16446892Y-15827205D01*
X16396220Y-15810872D01*
X16349149Y-15818075D01*
X15622895Y-16266421D02*
X15858251Y-16230406D01*
X15782620Y-15736159D01*
X15458146Y-16291631D02*
X15407726Y-15962133D01*
X15382516Y-15797384D02*
X15409653Y-15817318D01*
X15389719Y-15844455D01*
X15362582Y-15824521D01*
X15382516Y-15797384D01*
X15389719Y-15844455D01*
X15242977Y-15987343D02*
X15054692Y-16016155D01*
X15147160Y-15833398D02*
X15211986Y-16257039D01*
X15195653Y-16307711D01*
X15152184Y-16338450D01*
X15105113Y-16345653D01*
X14960550Y-16030560D02*
X14772266Y-16059372D01*
X14864733Y-15876616D02*
X14929559Y-16300256D01*
X14913227Y-16350929D01*
X14869757Y-16381667D01*
X14822686Y-16388870D01*
X14587330Y-16424884D02*
X14630800Y-16394146D01*
X14647133Y-16343473D01*
X14582306Y-15919833D01*
X14207160Y-16458972D02*
X14257832Y-16475305D01*
X14351974Y-16460899D01*
X14395444Y-16430160D01*
X14411777Y-16379488D01*
X14382965Y-16191203D01*
X14352227Y-16147734D01*
X14301554Y-16131401D01*
X14207412Y-16145807D01*
X14163942Y-16176545D01*
X14147610Y-16227218D01*
X14154812Y-16274289D01*
X14397371Y-16285346D01*
X18593211Y-16552563D02*
X18357855Y-16588578D01*
X18661891Y-16686574D02*
X18421512Y-16217537D01*
X18332393Y-16736994D01*
X18097037Y-16773009D02*
X18140507Y-16742270D01*
X18156840Y-16691598D01*
X18092014Y-16267957D01*
X17716867Y-16807096D02*
X17767539Y-16823429D01*
X17861682Y-16809023D01*
X17905151Y-16778285D01*
X17921484Y-16727612D01*
X17892672Y-16539328D01*
X17861934Y-16495858D01*
X17811261Y-16479525D01*
X17717119Y-16493931D01*
X17673649Y-16524669D01*
X17657317Y-16575342D01*
X17664520Y-16622413D01*
X17907078Y-16633470D01*
X17532184Y-16859443D02*
X17222872Y-16569561D01*
X17481763Y-16529945D02*
X17273292Y-16899059D01*
X16703415Y-16480443D02*
X16420988Y-16523660D01*
X16637832Y-16996298D02*
X16562202Y-16502051D01*
X16120049Y-17075530D02*
X16080434Y-16816639D01*
X16096766Y-16765966D01*
X16140236Y-16735228D01*
X16234378Y-16720822D01*
X16285051Y-16737155D01*
X16116448Y-17051995D02*
X16167121Y-17068327D01*
X16284798Y-17050320D01*
X16328268Y-17019582D01*
X16344601Y-16968909D01*
X16337398Y-16921838D01*
X16306659Y-16878368D01*
X16255987Y-16862036D01*
X16138309Y-16880043D01*
X16087636Y-16863710D01*
X15669272Y-17120422D02*
X15719945Y-17136755D01*
X15814087Y-17122349D01*
X15857557Y-17091611D01*
X15877491Y-17064474D01*
X15893824Y-17013801D01*
X15872215Y-16872588D01*
X15841476Y-16829118D01*
X15814339Y-16809184D01*
X15763667Y-16792851D01*
X15669525Y-16807257D01*
X15626055Y-16837995D01*
X15269168Y-17181647D02*
X15319840Y-17197979D01*
X15413982Y-17183574D01*
X15457452Y-17152835D01*
X15473785Y-17102163D01*
X15444973Y-16913878D01*
X15414235Y-16870408D01*
X15363562Y-16854076D01*
X15269420Y-16868482D01*
X15225950Y-16899220D01*
X15209618Y-16949893D01*
X15216820Y-16996964D01*
X15459379Y-17008020D01*
X15057347Y-17214060D02*
X15013878Y-17244798D01*
X14919735Y-17259204D01*
X14869063Y-17242871D01*
X14838324Y-17199402D01*
X14834723Y-17175866D01*
X14851056Y-17125194D01*
X14894525Y-17094455D01*
X14965132Y-17083651D01*
X15008602Y-17052912D01*
X15024934Y-17002240D01*
X15021333Y-16978704D01*
X14990595Y-16935234D01*
X14939922Y-16918902D01*
X14869315Y-16929706D01*
X14825846Y-16960445D01*
X14421887Y-17311299D02*
X14472560Y-17327632D01*
X14566702Y-17313226D01*
X14610172Y-17282487D01*
X14630106Y-17255350D01*
X14646438Y-17204678D01*
X14624830Y-17063464D01*
X14594091Y-17019995D01*
X14566954Y-17000061D01*
X14516282Y-16983728D01*
X14422139Y-16998134D01*
X14378670Y-17028872D01*
X13951428Y-17070163D02*
X14001848Y-17399661D01*
X14163248Y-17037750D02*
X14202864Y-17296641D01*
X14186531Y-17347313D01*
X14143062Y-17378052D01*
X14072455Y-17388856D01*
X14021782Y-17372524D01*
X13994645Y-17352589D01*
D11*
X16883496Y-4100741D02*
X16733639Y-4115526D01*
X16501461Y-4062777D01*
X16419140Y-3995241D01*
X16383254Y-3938256D01*
X16357918Y-3834834D01*
X16379018Y-3741963D01*
X16446553Y-3659642D01*
X16503539Y-3623756D01*
X16606960Y-3598420D01*
X16803253Y-3594184D01*
X16906674Y-3568848D01*
X16963660Y-3532962D01*
X17031195Y-3450641D01*
X17052295Y-3357770D01*
X17026959Y-3254348D01*
X16991074Y-3197363D01*
X16908752Y-3129827D01*
X16676574Y-3077077D01*
X16526717Y-3091863D01*
X15897797Y-3925628D02*
X16045496Y-3275528D01*
X16024396Y-3368399D02*
X15988511Y-3311414D01*
X15906189Y-3243878D01*
X15766882Y-3212229D01*
X15663461Y-3237564D01*
X15595925Y-3319886D01*
X15479876Y-3830678D01*
X15595925Y-3319886D02*
X15570589Y-3216465D01*
X15488268Y-3148929D01*
X15348961Y-3117279D01*
X15245540Y-3142615D01*
X15178004Y-3224936D01*
X15061955Y-3735729D01*
X14179677Y-3535280D02*
X14295726Y-3024488D01*
X14363262Y-2942166D01*
X14466683Y-2916831D01*
X14652426Y-2959030D01*
X14734747Y-3026566D01*
X14190227Y-3488845D02*
X14272548Y-3556380D01*
X14504727Y-3609130D01*
X14608148Y-3583794D01*
X14675683Y-3501473D01*
X14696783Y-3408601D01*
X14671447Y-3305180D01*
X14589126Y-3237644D01*
X14356948Y-3184895D01*
X14274626Y-3117359D01*
X13576013Y-3398131D02*
X13679434Y-3372795D01*
X13746970Y-3290474D01*
X13936868Y-2454632D01*
X13065220Y-3282082D02*
X13168642Y-3256746D01*
X13236177Y-3174425D01*
X13426076Y-2338582D01*
X12693735Y-3197683D02*
X12915283Y-2222533D01*
X12136507Y-3071083D02*
X12681027Y-2608805D01*
X12358055Y-2095934D02*
X12788684Y-2779761D01*
X11300664Y-2881185D02*
X11416714Y-2370392D01*
X11484249Y-2288071D01*
X11587670Y-2262735D01*
X11773413Y-2304935D01*
X11855735Y-2372470D01*
X11311214Y-2834749D02*
X11393536Y-2902285D01*
X11625714Y-2955034D01*
X11729136Y-2929698D01*
X11796671Y-2847377D01*
X11817771Y-2754506D01*
X11792435Y-2651084D01*
X11710114Y-2583549D01*
X11477935Y-2530799D01*
X11395614Y-2463264D01*
X11123314Y-2157236D02*
X10751828Y-2072836D01*
X11057856Y-1800536D02*
X10867957Y-2636378D01*
X10800422Y-2718700D01*
X10697001Y-2744036D01*
X10604129Y-2722936D01*
X9536108Y-2480287D02*
X9757657Y-1505138D01*
X9274358Y-2127824D01*
X9107557Y-1357439D01*
X8886009Y-2332588D01*
X7750453Y-2172262D02*
X7853874Y-2146926D01*
X7967845Y-2075154D01*
X8138802Y-1967497D01*
X8242223Y-1942161D01*
X8335095Y-1963261D01*
X8235909Y-2184890D02*
X8339331Y-2159554D01*
X8453302Y-2087782D01*
X8541937Y-1912589D01*
X8615787Y-1587540D01*
X8611551Y-1391247D01*
X8539779Y-1277276D01*
X8457458Y-1209740D01*
X8271715Y-1167540D01*
X8168294Y-1192876D01*
X8054323Y-1264648D01*
X7965687Y-1439841D01*
X7891838Y-1764890D01*
X7896074Y-1961183D01*
X7967845Y-2075154D01*
X8050167Y-2142690D01*
X8235909Y-2184890D01*
X7400067Y-1994991D02*
X7621616Y-1019841D01*
X7250130Y-935442D01*
X7146709Y-960778D01*
X7089723Y-996664D01*
X7022188Y-1078985D01*
X6990538Y-1218292D01*
X7015874Y-1321713D01*
X7051759Y-1378699D01*
X7134081Y-1446235D01*
X7505566Y-1530634D01*
X16124829Y-5720531D02*
X16346377Y-4745381D01*
X15660472Y-5615031D02*
X15882021Y-4639882D01*
X15398722Y-5262568D01*
X15231921Y-4492183D01*
X15010373Y-5467332D01*
X14767564Y-4386684D02*
X14588215Y-5176090D01*
X14520680Y-5258412D01*
X14463694Y-5294298D01*
X14360273Y-5319633D01*
X14174530Y-5277434D01*
X14092209Y-5209898D01*
X14056323Y-5152913D01*
X14030987Y-5049491D01*
X14210336Y-4260085D01*
X12572459Y-4376294D02*
X12422602Y-4391080D01*
X12365617Y-4426966D01*
X12298081Y-4509287D01*
X12266431Y-4648594D01*
X12291767Y-4752015D01*
X12327653Y-4809001D01*
X12409974Y-4876536D01*
X12781460Y-4960936D01*
X13003008Y-3985787D01*
X12677958Y-3911937D01*
X12574537Y-3937273D01*
X12517552Y-3973159D01*
X12450016Y-4055480D01*
X12428916Y-4148351D01*
X12454252Y-4251773D01*
X12490138Y-4308758D01*
X12572459Y-4376294D01*
X12897509Y-4450143D01*
X11806310Y-4739387D02*
X11954009Y-4089288D01*
X11911810Y-4275031D02*
X11886474Y-4171609D01*
X11850588Y-4114624D01*
X11768267Y-4047088D01*
X11675395Y-4025988D01*
X10841711Y-4471403D02*
X10924032Y-4538939D01*
X11109775Y-4581138D01*
X11213196Y-4555803D01*
X11280732Y-4473481D01*
X11365131Y-4101996D01*
X11339796Y-3998574D01*
X11257474Y-3931039D01*
X11071731Y-3888839D01*
X10968310Y-3914175D01*
X10900775Y-3996496D01*
X10879675Y-4089368D01*
X11322932Y-4287738D01*
X9948883Y-4317390D02*
X10064932Y-3806598D01*
X10132468Y-3724276D01*
X10235889Y-3698940D01*
X10421632Y-3741140D01*
X10503953Y-3808676D01*
X9959433Y-4270955D02*
X10041754Y-4338490D01*
X10273933Y-4391240D01*
X10377354Y-4365904D01*
X10444890Y-4283583D01*
X10465990Y-4190711D01*
X10440654Y-4087290D01*
X10358332Y-4019754D01*
X10126154Y-3967005D01*
X10043832Y-3899469D01*
X9484526Y-4211891D02*
X9706075Y-3236742D01*
X9476054Y-3819306D02*
X9113041Y-4127492D01*
X9260740Y-3477392D02*
X9547826Y-3933277D01*
X8555813Y-4000892D02*
X8659234Y-3975557D01*
X8716219Y-3939671D01*
X8783755Y-3857349D01*
X8847055Y-3578735D01*
X8821719Y-3475314D01*
X8785833Y-3418328D01*
X8703512Y-3350793D01*
X8564205Y-3319143D01*
X8460783Y-3344479D01*
X8403798Y-3380365D01*
X8336262Y-3462686D01*
X8272963Y-3741300D01*
X8298298Y-3844721D01*
X8334184Y-3901707D01*
X8416506Y-3969243D01*
X8555813Y-4000892D01*
X7542619Y-3087045D02*
X7394920Y-3737144D01*
X7960541Y-3181994D02*
X7844491Y-3692787D01*
X7776956Y-3775108D01*
X7673535Y-3800444D01*
X7534228Y-3768794D01*
X7451906Y-3701258D01*
X7416020Y-3644273D01*
X7217570Y-3013195D02*
X6846084Y-2928796D01*
X7152112Y-2656496D02*
X6962213Y-3492338D01*
X6894678Y-3574659D01*
X6791257Y-3599995D01*
X6698385Y-3578895D01*
X12056560Y-6539565D02*
X12487109Y-6149058D01*
X12613788Y-6666165D02*
X12835337Y-5691015D01*
X12463851Y-5606616D01*
X12360430Y-5631952D01*
X12303444Y-5667837D01*
X12235909Y-5750159D01*
X12204259Y-5889466D01*
X12229595Y-5992887D01*
X12265481Y-6049873D01*
X12347802Y-6117408D01*
X12719288Y-6201808D01*
X11277703Y-6313781D02*
X11360025Y-6381317D01*
X11545768Y-6423516D01*
X11649189Y-6398180D01*
X11716724Y-6315859D01*
X11801124Y-5944374D01*
X11775788Y-5840952D01*
X11693467Y-5773417D01*
X11507724Y-5731217D01*
X11404303Y-5756553D01*
X11336767Y-5838874D01*
X11315667Y-5931746D01*
X11758924Y-6130116D01*
X11043367Y-5625718D02*
X10663490Y-6223068D01*
X10579010Y-5520218D01*
X8806062Y-5801070D02*
X9363291Y-5927670D01*
X9084676Y-5864370D02*
X9306225Y-4889221D01*
X9367446Y-5049628D01*
X9439218Y-5163599D01*
X9521539Y-5231134D01*
D12*
G04 #@! TO.C,U2*
X12710000Y-12010000D02*
X12710000Y-11750000D01*
X12710000Y-12010000D02*
X12450000Y-12010000D01*
X12710000Y-7990000D02*
X12710000Y-8250000D01*
X12710000Y-7990000D02*
X12450000Y-7990000D01*
X7290000Y-12010000D02*
X7550000Y-12010000D01*
X7290000Y-7990000D02*
X7290000Y-8250000D01*
X7290000Y-7990000D02*
X7550000Y-7990000D01*
G04 #@! TO.C,Y2*
X7244000Y-13466000D02*
X9644000Y-13466000D01*
X9644000Y-13466000D02*
X9644000Y-15066000D01*
X9644000Y-15066000D02*
X7244000Y-15066000D01*
G04 #@! TO.C,C3*
D13*
X10393333Y-13691428D02*
X10402857Y-13700952D01*
X10431428Y-13710476D01*
X10450476Y-13710476D01*
X10479047Y-13700952D01*
X10498095Y-13681904D01*
X10507619Y-13662857D01*
X10517142Y-13624761D01*
X10517142Y-13596190D01*
X10507619Y-13558095D01*
X10498095Y-13539047D01*
X10479047Y-13520000D01*
X10450476Y-13510476D01*
X10431428Y-13510476D01*
X10402857Y-13520000D01*
X10393333Y-13529523D01*
X10326666Y-13510476D02*
X10202857Y-13510476D01*
X10269523Y-13586666D01*
X10240952Y-13586666D01*
X10221904Y-13596190D01*
X10212380Y-13605714D01*
X10202857Y-13624761D01*
X10202857Y-13672380D01*
X10212380Y-13691428D01*
X10221904Y-13700952D01*
X10240952Y-13710476D01*
X10298095Y-13710476D01*
X10317142Y-13700952D01*
X10326666Y-13691428D01*
G04 #@! TO.C,C4*
X5805428Y-14366666D02*
X5814952Y-14357142D01*
X5824476Y-14328571D01*
X5824476Y-14309523D01*
X5814952Y-14280952D01*
X5795904Y-14261904D01*
X5776857Y-14252380D01*
X5738761Y-14242857D01*
X5710190Y-14242857D01*
X5672095Y-14252380D01*
X5653047Y-14261904D01*
X5634000Y-14280952D01*
X5624476Y-14309523D01*
X5624476Y-14328571D01*
X5634000Y-14357142D01*
X5643523Y-14366666D01*
X5691142Y-14538095D02*
X5824476Y-14538095D01*
X5614952Y-14490476D02*
X5757809Y-14442857D01*
X5757809Y-14566666D01*
G04 #@! TO.C,C5*
X6233333Y-8341428D02*
X6242857Y-8350952D01*
X6271428Y-8360476D01*
X6290476Y-8360476D01*
X6319047Y-8350952D01*
X6338095Y-8331904D01*
X6347619Y-8312857D01*
X6357142Y-8274761D01*
X6357142Y-8246190D01*
X6347619Y-8208095D01*
X6338095Y-8189047D01*
X6319047Y-8170000D01*
X6290476Y-8160476D01*
X6271428Y-8160476D01*
X6242857Y-8170000D01*
X6233333Y-8179523D01*
X6052380Y-8160476D02*
X6147619Y-8160476D01*
X6157142Y-8255714D01*
X6147619Y-8246190D01*
X6128571Y-8236666D01*
X6080952Y-8236666D01*
X6061904Y-8246190D01*
X6052380Y-8255714D01*
X6042857Y-8274761D01*
X6042857Y-8322380D01*
X6052380Y-8341428D01*
X6061904Y-8350952D01*
X6080952Y-8360476D01*
X6128571Y-8360476D01*
X6147619Y-8350952D01*
X6157142Y-8341428D01*
G04 #@! TO.C,U2*
X10312380Y-9796476D02*
X10312380Y-9958380D01*
X10302857Y-9977428D01*
X10293333Y-9986952D01*
X10274285Y-9996476D01*
X10236190Y-9996476D01*
X10217142Y-9986952D01*
X10207619Y-9977428D01*
X10198095Y-9958380D01*
X10198095Y-9796476D01*
X10112380Y-9815523D02*
X10102857Y-9806000D01*
X10083809Y-9796476D01*
X10036190Y-9796476D01*
X10017142Y-9806000D01*
X10007619Y-9815523D01*
X9998095Y-9834571D01*
X9998095Y-9853619D01*
X10007619Y-9882190D01*
X10121904Y-9996476D01*
X9998095Y-9996476D01*
G04 #@! TO.C,Y2*
X8539238Y-13845238D02*
X8539238Y-13940476D01*
X8605904Y-13740476D02*
X8539238Y-13845238D01*
X8472571Y-13740476D01*
X8415428Y-13759523D02*
X8405904Y-13750000D01*
X8386857Y-13740476D01*
X8339238Y-13740476D01*
X8320190Y-13750000D01*
X8310666Y-13759523D01*
X8301142Y-13778571D01*
X8301142Y-13797619D01*
X8310666Y-13826190D01*
X8424952Y-13940476D01*
X8301142Y-13940476D01*
G04 #@! TD*
M02*
