M48
;DRILL file {KiCad 5.0.1-33cea8e~67~ubuntu16.04.1} date Thu 18 Oct 2018 10:52:19 AM EDT
;FORMAT={-:-/ absolute / inch / decimal}
FMAT,2
INCH,TZ
T1C0.0118
T2C0.0984
%
G90
G05
M72
T1
X0.0642Y-0.3283
X0.2067Y-0.3224
X0.2079Y-0.3614
X0.2642Y-0.3854
X0.272Y-0.4795
X0.272Y-0.4961
X0.2728Y-0.5122
X0.2898Y-0.4961
X0.2902Y-0.4795
X0.2909Y-0.5122
X0.2992Y-0.3843
X0.3063Y-0.4957
X0.3071Y-0.5122
X0.3248Y-0.4587
X0.3323Y-0.1146
X0.4028Y-0.3287
X0.4512Y-0.2524
X0.4531Y-0.1315
X0.5181Y-0.1839
X0.5236Y-0.2858
X0.5327Y-0.376
X0.5732Y-0.2508
X0.5756Y-0.1307
X0.5827Y-0.2858
X0.5937Y-0.3311
X0.6024Y-0.4693
X0.6083Y-0.2406
T2
X0.1346Y-0.126
X0.7146Y-0.3756
T0
M30
