G04 #@! TF.GenerationSoftware,KiCad,Pcbnew,5.0.1-33cea8e~67~ubuntu16.04.1*
G04 #@! TF.CreationDate,2018-10-18T10:52:16-04:00*
G04 #@! TF.ProjectId,IMU Breakout,494D5520427265616B6F75742E6B6963,rev?*
G04 #@! TF.SameCoordinates,Original*
G04 #@! TF.FileFunction,Legend,Top*
G04 #@! TF.FilePolarity,Positive*
%FSLAX46Y46*%
G04 Gerber Fmt 4.6, Leading zero omitted, Abs format (unit mm)*
G04 Created by KiCad (PCBNEW 5.0.1-33cea8e~67~ubuntu16.04.1) date Thu 18 Oct 2018 10:52:16 AM EDT*
%MOMM*%
%LPD*%
G01*
G04 APERTURE LIST*
%ADD10C,0.120000*%
%ADD11C,0.150000*%
%ADD12C,0.025000*%
G04 APERTURE END LIST*
D10*
G04 #@! TO.C,J1*
X2190000Y-14210000D02*
X2190000Y-12510000D01*
X2190000Y-12510000D02*
X4540000Y-12510000D01*
X4540000Y-12510000D02*
X4540000Y-10570000D01*
X18410000Y-14210000D02*
X18410000Y-12510000D01*
X18410000Y-12510000D02*
X16060000Y-12510000D01*
X4110000Y-19680000D02*
X16490000Y-19680000D01*
D11*
G04 #@! TO.C,U1*
X10425000Y-7485000D02*
X10425000Y-6960000D01*
X15675000Y-2235000D02*
X15675000Y-2760000D01*
X10425000Y-2235000D02*
X10425000Y-2760000D01*
X15675000Y-7485000D02*
X15150000Y-7485000D01*
X15675000Y-2235000D02*
X15150000Y-2235000D01*
X10425000Y-2235000D02*
X10950000Y-2235000D01*
X10425000Y-7485000D02*
X10950000Y-7485000D01*
D10*
G04 #@! TO.C,U3*
X5050000Y-6590000D02*
X3250000Y-6590000D01*
X3250000Y-9810000D02*
X5700000Y-9810000D01*
G04 #@! TO.C,C6*
D12*
X951428Y-8833333D02*
X960952Y-8842857D01*
X970476Y-8871428D01*
X970476Y-8890476D01*
X960952Y-8919047D01*
X941904Y-8938095D01*
X922857Y-8947619D01*
X884761Y-8957142D01*
X856190Y-8957142D01*
X818095Y-8947619D01*
X799047Y-8938095D01*
X780000Y-8919047D01*
X770476Y-8890476D01*
X770476Y-8871428D01*
X780000Y-8842857D01*
X789523Y-8833333D01*
X770476Y-8661904D02*
X770476Y-8700000D01*
X780000Y-8719047D01*
X789523Y-8728571D01*
X818095Y-8747619D01*
X856190Y-8757142D01*
X932380Y-8757142D01*
X951428Y-8747619D01*
X960952Y-8738095D01*
X970476Y-8719047D01*
X970476Y-8680952D01*
X960952Y-8661904D01*
X951428Y-8652380D01*
X932380Y-8642857D01*
X884761Y-8642857D01*
X865714Y-8652380D01*
X856190Y-8661904D01*
X846666Y-8680952D01*
X846666Y-8719047D01*
X856190Y-8738095D01*
X865714Y-8747619D01*
X884761Y-8757142D01*
G04 #@! TO.C,J1*
X10233333Y-9260476D02*
X10233333Y-9403333D01*
X10223809Y-9431904D01*
X10204761Y-9450952D01*
X10176190Y-9460476D01*
X10157142Y-9460476D01*
X10433333Y-9460476D02*
X10319047Y-9460476D01*
X10376190Y-9460476D02*
X10376190Y-9260476D01*
X10357142Y-9289047D01*
X10338095Y-9308095D01*
X10319047Y-9317619D01*
G04 #@! TO.C,U1*
X10267619Y-7600476D02*
X10267619Y-7762380D01*
X10277142Y-7781428D01*
X10286666Y-7790952D01*
X10305714Y-7800476D01*
X10343809Y-7800476D01*
X10362857Y-7790952D01*
X10372380Y-7781428D01*
X10381904Y-7762380D01*
X10381904Y-7600476D01*
X10581904Y-7800476D02*
X10467619Y-7800476D01*
X10524761Y-7800476D02*
X10524761Y-7600476D01*
X10505714Y-7629047D01*
X10486666Y-7648095D01*
X10467619Y-7657619D01*
G04 #@! TO.C,U3*
X4027619Y-8800476D02*
X4027619Y-8962380D01*
X4037142Y-8981428D01*
X4046666Y-8990952D01*
X4065714Y-9000476D01*
X4103809Y-9000476D01*
X4122857Y-8990952D01*
X4132380Y-8981428D01*
X4141904Y-8962380D01*
X4141904Y-8800476D01*
X4218095Y-8800476D02*
X4341904Y-8800476D01*
X4275238Y-8876666D01*
X4303809Y-8876666D01*
X4322857Y-8886190D01*
X4332380Y-8895714D01*
X4341904Y-8914761D01*
X4341904Y-8962380D01*
X4332380Y-8981428D01*
X4322857Y-8990952D01*
X4303809Y-9000476D01*
X4246666Y-9000476D01*
X4227619Y-8990952D01*
X4218095Y-8981428D01*
G04 #@! TO.C,REF\002A\002A*
X3133333Y-3420476D02*
X3066666Y-3325238D01*
X3019047Y-3420476D02*
X3019047Y-3220476D01*
X3095238Y-3220476D01*
X3114285Y-3230000D01*
X3123809Y-3239523D01*
X3133333Y-3258571D01*
X3133333Y-3287142D01*
X3123809Y-3306190D01*
X3114285Y-3315714D01*
X3095238Y-3325238D01*
X3019047Y-3325238D01*
X3219047Y-3315714D02*
X3285714Y-3315714D01*
X3314285Y-3420476D02*
X3219047Y-3420476D01*
X3219047Y-3220476D01*
X3314285Y-3220476D01*
X3466666Y-3315714D02*
X3400000Y-3315714D01*
X3400000Y-3420476D02*
X3400000Y-3220476D01*
X3495238Y-3220476D01*
X3600000Y-3220476D02*
X3600000Y-3268095D01*
X3552380Y-3249047D02*
X3600000Y-3268095D01*
X3647619Y-3249047D01*
X3571428Y-3306190D02*
X3600000Y-3268095D01*
X3628571Y-3306190D01*
X3752380Y-3220476D02*
X3752380Y-3268095D01*
X3704761Y-3249047D02*
X3752380Y-3268095D01*
X3800000Y-3249047D01*
X3723809Y-3306190D02*
X3752380Y-3268095D01*
X3780952Y-3306190D01*
X17883333Y-6130476D02*
X17816666Y-6035238D01*
X17769047Y-6130476D02*
X17769047Y-5930476D01*
X17845238Y-5930476D01*
X17864285Y-5940000D01*
X17873809Y-5949523D01*
X17883333Y-5968571D01*
X17883333Y-5997142D01*
X17873809Y-6016190D01*
X17864285Y-6025714D01*
X17845238Y-6035238D01*
X17769047Y-6035238D01*
X17969047Y-6025714D02*
X18035714Y-6025714D01*
X18064285Y-6130476D02*
X17969047Y-6130476D01*
X17969047Y-5930476D01*
X18064285Y-5930476D01*
X18216666Y-6025714D02*
X18150000Y-6025714D01*
X18150000Y-6130476D02*
X18150000Y-5930476D01*
X18245238Y-5930476D01*
X18350000Y-5930476D02*
X18350000Y-5978095D01*
X18302380Y-5959047D02*
X18350000Y-5978095D01*
X18397619Y-5959047D01*
X18321428Y-6016190D02*
X18350000Y-5978095D01*
X18378571Y-6016190D01*
X18502380Y-5930476D02*
X18502380Y-5978095D01*
X18454761Y-5959047D02*
X18502380Y-5978095D01*
X18550000Y-5959047D01*
X18473809Y-6016190D02*
X18502380Y-5978095D01*
X18530952Y-6016190D01*
G04 #@! TO.C,R1*
X13351666Y-8920476D02*
X13285000Y-8825238D01*
X13237380Y-8920476D02*
X13237380Y-8720476D01*
X13313571Y-8720476D01*
X13332619Y-8730000D01*
X13342142Y-8739523D01*
X13351666Y-8758571D01*
X13351666Y-8787142D01*
X13342142Y-8806190D01*
X13332619Y-8815714D01*
X13313571Y-8825238D01*
X13237380Y-8825238D01*
X13542142Y-8920476D02*
X13427857Y-8920476D01*
X13485000Y-8920476D02*
X13485000Y-8720476D01*
X13465952Y-8749047D01*
X13446904Y-8768095D01*
X13427857Y-8777619D01*
G04 #@! TO.C,J2*
D11*
X4074380Y-4989333D02*
X4788666Y-4989333D01*
X4931523Y-5036952D01*
X5026761Y-5132190D01*
X5074380Y-5275047D01*
X5074380Y-5370285D01*
X4169619Y-4560761D02*
X4122000Y-4513142D01*
X4074380Y-4417904D01*
X4074380Y-4179809D01*
X4122000Y-4084571D01*
X4169619Y-4036952D01*
X4264857Y-3989333D01*
X4360095Y-3989333D01*
X4502952Y-4036952D01*
X5074380Y-4608380D01*
X5074380Y-3989333D01*
G04 #@! TD*
M02*
